# xmcd
#
# Track frame offsets:
#	150
#	12334
#	21665
#	33345
#	43147
#	52264
#	61393
#	72558
#	83369
#	93851
#	104527
#	117509
#	127279
#	138924
#
# Disc length: 1990 seconds
#
# Revision: 0
# Processed by: cddbd v1.5PL3 Copyright (c) Steve Scherf et al.
# Submitted via: dBpowerAMP V4.0
#
DISCID=ce07c40e
DTITLE=Rayburn Anthony - Jackson Was Jumpin'
DYEAR=2001
DGENRE=Country
TTITLE0=Jackson Was Jumpin'
TTITLE1=Dance
TTITLE2=Dreamer that I Am
TTITLE3=She's A Cadillac
TTITLE4=Since You've Gone
TTITLE5=On My Way To Gothenburg
TTITLE6=Let The Four Winds Blow
TTITLE7=Fraulein
TTITLE8=If She Looked At Me
TTITLE9=Puti-puti
TTITLE10=Sing Me A Love Song
TTITLE11=Rollin' In My Sweet Baby's Arms
TTITLE12=Redneck Crowd
TTITLE13=Joe's Place
EXTD=
EXTT0=
EXTT1=
EXTT2=
EXTT3=
EXTT4=
EXTT5=
EXTT6=
EXTT7=
EXTT8=
EXTT9=
EXTT10=
EXTT11=
EXTT12=
EXTT13=
PLAYORDER=
